<svg xmlns="http://www.w3.org/2000/svg" viewBox="0 0 24 24" fill="none">
  <circle cx="12" cy="12" r="11" fill="#F7931A"/>
  <path d="M15.5 10.5c.3-1.1-.7-1.7-1.8-2.1l.4-1.5-.9-.2-.4 1.5c-.2-.1-.5-.1-.8-.2l.4-1.5-.9-.2-.4 1.5c-.2-.1-.4-.1-.6-.2l-1.2-.3-.3 1.1s.7.1.7.2c.4.1.4.3.4.5l-.6 2.5-.7 2.8c-.1.2-.2.4-.5.3 0 0-.7-.2-.7-.2l-.5 1.1 1.2.3c.2.1.4.1.7.2l-.4 1.5.9.3.4-1.5c.2.1.5.1.8.2l-.4 1.5.9.2.4-1.5c1.5.3 2.7.2 3.2-1.2.4-1.2 0-1.8-.8-2.3.6-.1 1-.5 1.2-1.3zm-2.1 2.8c-.3 1.2-2.2.5-2.8.4l.5-2c.6.2 2.6.5 2.3 1.6zm.3-3.1c-.3 1.1-1.9.5-2.5.4l.5-2c.5.1 2.2.5 2 1.6z" fill="#fff"/>
</svg>
